<svg width="32" height="32" viewBox="0 0 32 32" fill="none" xmlns="http://www.w3.org/2000/svg">
<g clip-path="url(#clip0_404_3008)">
<path fill-rule="evenodd" clip-rule="evenodd" d="M2.65308 24.6679C2.5664 24.2244 2.62404 17.193 2.63364 16.1577C2.65844 13.5355 3.46267 11.186 4.49969 9.44575C6.34719 6.34543 10.3411 3.11197 15.813 3.51364C20.4047 3.85075 24.5101 6.92403 24.8539 11.7342C25.1159 15.4009 22.7991 18.354 19.7897 19.5103C19.3945 19.6622 16.2629 20.552 16.0123 19.8994C15.9414 19.7151 15.9716 19.4844 15.9725 19.2565C15.9738 18.9469 15.9551 18.6308 15.9908 18.3247C16.9496 18.1578 17.4887 18.2007 18.515 17.682C20.6938 16.5809 22.0353 14.058 21.4746 11.4016C20.835 8.37143 17.3705 6.31237 13.4541 6.98167C2.90999 8.7836 2.97031 29.2609 12.374 31.3017C21.265 33.2311 29.421 27.3497 31.0572 19.0154C31.3655 17.445 31.5049 14.7885 31.0501 13.2737C30.9424 14.1284 30.9781 14.8817 30.822 15.7532C29.9518 20.6089 26.9623 24.3404 22.5265 26.6496C20.2622 27.8285 16.5415 28.7196 13.4448 27.8926C6.62509 26.071 7.45569 10.3626 14.6498 10.0972C16.4066 10.0324 17.8035 10.7598 18.1741 12.0865C18.6365 13.7413 17.4737 14.9512 16.0219 15.1232C15.0738 15.2356 14.4384 15.2083 13.7926 15.6455C12.4082 16.582 12.7643 18.4427 12.7623 20.1501C12.7609 21.2047 12.8655 21.7197 13.38 22.3199C14.2838 23.3744 16.0248 23.4731 17.7389 23.3016C23.7416 22.7006 28.3242 17.5526 28.0418 11.7673C27.746 5.70205 23.1201 1.60158 17.0861 0.797575C11.1002 4.44651e-05 5.29364 3.01345 2.34055 7.76982C0.994799 9.93745 -0.00334255 13.042 8.41222e-06 16.3675C0.00224239 18.5738 0.718232 21.1219 1.63774 22.9888C1.80015 23.3185 1.94491 23.5399 2.12519 23.8697C2.2465 24.0915 2.4136 24.5727 2.65308 24.6679Z" fill="url(#paint0_linear_404_3008)"/>
</g>
<defs>
<linearGradient id="paint0_linear_404_3008" x1="3.97448" y1="0.738374" x2="26.1087" y2="27.7027" gradientUnits="userSpaceOnUse">
<stop stop-color="#20D6FE"/>
<stop offset="1" stop-color="#9747FF"/>
</linearGradient>
<clipPath id="clip0_404_3008">
<rect width="32" height="32" fill="white"/>
</clipPath>
</defs>
</svg>
