<svg width="16" height="17" viewBox="0 0 16 17" fill="none" xmlns="http://www.w3.org/2000/svg">
<g clip-path="url(#clip0_398_2680)">
<path d="M3.40625 10.7787C3.40625 11.6949 2.659 12.4433 1.74262 12.4433C0.82625 12.4433 0.078125 11.6949 0.078125 10.7787C0.078125 9.86245 0.8265 9.11407 1.74275 9.11407H3.40638L3.40625 10.7787ZM4.24487 10.7787C4.24487 9.86245 4.99325 9.11407 5.9095 9.11407C6.82575 9.11407 7.57412 9.86232 7.57412 10.7787V14.9456C7.57412 15.8618 6.82587 16.6102 5.9095 16.6102C4.99325 16.6102 4.24487 15.8618 4.24487 14.9456V10.7787Z" fill="#DE1C59"/>
<path d="M5.9095 4.0957C4.99325 4.0957 4.24487 3.34845 4.24487 2.43208C4.24487 1.5157 4.99325 0.767578 5.9095 0.767578C6.82575 0.767578 7.57412 1.51595 7.57412 2.4322V4.09583L5.9095 4.0957ZM5.9095 4.93433C6.82575 4.93433 7.57412 5.6827 7.57412 6.59895C7.57412 7.5152 6.82587 8.26358 5.9095 8.26358H1.74262C0.826375 8.26358 0.078125 7.51533 0.078125 6.59895C0.078125 5.6827 0.8265 4.93433 1.74275 4.93433H5.9095Z" fill="#35C5F0"/>
<path d="M12.5937 6.59895C12.5937 5.6827 13.3409 4.93433 14.2573 4.93433C15.1737 4.93433 15.9219 5.6827 15.9219 6.59895C15.9219 7.5152 15.1735 8.26358 14.2573 8.26358H12.5937V6.59895ZM11.755 6.59895C11.755 7.5152 11.0067 8.26358 10.0904 8.26358C9.17416 8.26358 8.42578 7.51533 8.42578 6.59895V2.43208C8.42578 1.51583 9.17403 0.767578 10.0904 0.767578C11.0067 0.767578 11.755 1.51595 11.755 2.4322V6.59895Z" fill="#2EB57D"/>
<path d="M10.0904 13.2819C11.0067 13.2819 11.755 14.0292 11.755 14.9456C11.755 15.8619 11.0067 16.6102 10.0904 16.6102C9.17416 16.6102 8.42578 15.8618 8.42578 14.9456V13.2819H10.0904ZM10.0904 12.4433C9.17416 12.4433 8.42578 11.6949 8.42578 10.7787C8.42578 9.86245 9.17403 9.11407 10.0904 9.11407H14.2573C15.1735 9.11407 15.9219 9.86232 15.9219 10.7787C15.9219 11.6949 15.1735 12.4433 14.2573 12.4433H10.0904Z" fill="#EBB02E"/>
</g>
<defs>
<clipPath id="clip0_398_2680">
<rect width="16" height="16" fill="white" transform="translate(0 0.688843)"/>
</clipPath>
</defs>
</svg>
