<svg width="16" height="17" viewBox="0 0 16 17" fill="none" xmlns="http://www.w3.org/2000/svg">
<g clip-path="url(#clip0_398_2672)">
<path d="M5.57338 1.21509C3.97473 1.76968 2.59606 2.8223 1.63987 4.21834C0.683675 5.61439 0.200366 7.28027 0.26093 8.9713C0.321493 10.6623 0.922737 12.2894 1.97635 13.6134C3.02996 14.9375 4.4804 15.8888 6.11463 16.3276C7.43953 16.6695 8.82764 16.6845 10.1596 16.3713C11.3663 16.1003 12.4819 15.5205 13.3971 14.6888C14.3497 13.7968 15.0412 12.6619 15.3971 11.4063C15.784 10.0409 15.8529 8.60501 15.5984 7.20884H8.15838V10.2951H12.4671C12.381 10.7873 12.1965 11.2571 11.9246 11.6764C11.6527 12.0956 11.2989 12.4557 10.8846 12.7351C10.3585 13.0831 9.76537 13.3173 9.14338 13.4226C8.51956 13.5386 7.8797 13.5386 7.25588 13.4226C6.62361 13.2919 6.0255 13.0309 5.49963 12.6563C4.65481 12.0583 4.02047 11.2087 3.68713 10.2288C3.34815 9.23058 3.34815 8.14835 3.68713 7.15009C3.92441 6.45036 4.31667 5.81326 4.83463 5.28634C5.42737 4.67227 6.17779 4.23334 7.00357 4.01769C7.82935 3.80203 8.69858 3.818 9.51588 4.06384C10.1543 4.25983 10.7382 4.60226 11.2209 5.06384C11.7067 4.58051 12.1917 4.09592 12.6759 3.61009C12.9259 3.34884 13.1984 3.10009 13.4446 2.83259C12.7078 2.14694 11.843 1.61341 10.8996 1.26259C9.18176 0.638828 7.3021 0.622065 5.57338 1.21509Z" fill="white"/>
<path d="M5.57445 1.21509C7.30303 0.621659 9.18269 0.637981 10.9007 1.26134C11.8442 1.61454 12.7087 2.15064 13.4445 2.83884C13.1945 3.10634 12.9307 3.35634 12.6757 3.61634C12.1907 4.1005 11.7061 4.583 11.222 5.06384C10.7393 4.60226 10.1554 4.25983 9.51695 4.06384C8.69992 3.81714 7.83073 3.80025 7.00473 4.01502C6.17873 4.22978 5.42784 4.66791 4.83445 5.28134C4.31649 5.80826 3.92424 6.44536 3.68695 7.14509L1.0957 5.13884C2.02321 3.29954 3.62914 1.89262 5.57445 1.21509Z" fill="#E33629"/>
<path d="M0.40695 7.12636C0.546226 6.4361 0.777454 5.76764 1.09445 5.13885L3.6857 7.1501C3.34672 8.14836 3.34672 9.2306 3.6857 10.2289C2.82237 10.8955 1.95862 11.5655 1.09445 12.2389C0.300888 10.6593 0.0588654 8.85948 0.40695 7.12636Z" fill="#F8BD00"/>
<path d="M8.15876 7.20758H15.5988C15.8533 8.60375 15.7844 10.0397 15.3975 11.4051C15.0416 12.6607 14.3501 13.7955 13.3975 14.6876C12.5613 14.0351 11.7213 13.3876 10.885 12.7351C11.2996 12.4554 11.6535 12.0949 11.9254 11.6752C12.1973 11.2555 12.3817 10.7853 12.4675 10.2926H8.15876C8.15751 9.26508 8.15876 8.23633 8.15876 7.20758Z" fill="#587DBD"/>
<path d="M1.09375 12.2389C1.95792 11.5722 2.82167 10.9022 3.685 10.2289C4.01901 11.2091 4.65426 12.0587 5.5 12.6564C6.02751 13.0292 6.62691 13.288 7.26 13.4164C7.88382 13.5323 8.52368 13.5323 9.1475 13.4164C9.76949 13.3111 10.3626 13.0769 10.8888 12.7289C11.725 13.3814 12.565 14.0289 13.4012 14.6814C12.4861 15.5135 11.3705 16.0937 10.1637 16.3651C8.83176 16.6782 7.44365 16.6632 6.11875 16.3214C5.07088 16.0416 4.09209 15.5483 3.24375 14.8726C2.34583 14.1597 1.61244 13.2613 1.09375 12.2389Z" fill="#319F43"/>
</g>
<defs>
<clipPath id="clip0_398_2672">
<rect width="16" height="16" fill="white" transform="translate(0 0.688843)"/>
</clipPath>
</defs>
</svg>
