<svg viewBox="0 0 35 35" fill="none" xmlns="http://www.w3.org/2000/svg" x="0" y="0"><defs><linearGradient id="paint18_linear_247_1922" x1="17.5" y1="0" x2="17.5" y2="35" gradientUnits="userSpaceOnUse">
<stop stopColor="#6619DE"/>
<stop offset="1" stopColor="#1186DA"/>
</linearGradient></defs><path id="Vector_32" d="M29.75,3.5h-3.5v-1.75c0,-0.46 -0.184,-0.91 -0.513,-1.24c-0.328,-0.33 -0.773,-0.51 -1.237,-0.51c-0.464,0 -0.909,0.18 -1.237,0.51c-0.329,0.33 -0.513,0.78 -0.513,1.24v1.75h-10.5v-1.75c0,-0.46 -0.1844,-0.91 -0.5126,-1.24c-0.3282,-0.33 -0.7733,-0.51 -1.2374,-0.51c-0.4641,0 -0.9092,0.18 -1.2374,0.51c-0.3282,0.33 -0.5126,0.78 -0.5126,1.24v1.75h-3.5c-1.3924,0 -2.7277,0.55 -3.7123,1.54c-0.9846,0.98 -1.5377,2.32 -1.5377,3.71v21c0,1.39 0.5531,2.73 1.5377,3.71c0.9846,0.99 2.3199,1.54 3.7123,1.54h24.5c1.392,0 2.728,-0.55 3.712,-1.54c0.985,-0.98 1.538,-2.32 1.538,-3.71v-21c0,-1.39 -0.553,-2.73 -1.538,-3.71c-0.984,-0.99 -2.32,-1.54 -3.712,-1.54zM31.5,29.75c0,0.46 -0.184,0.91 -0.513,1.24c-0.328,0.33 -0.773,0.51 -1.237,0.51h-24.5c-0.4641,0 -0.9092,-0.18 -1.2374,-0.51c-0.3282,-0.33 -0.5126,-0.78 -0.5126,-1.24v-12.25h28zM31.5,14h-28v-5.25c0,-0.46 0.1844,-0.91 0.5126,-1.24c0.3282,-0.33 0.7733,-0.51 1.2374,-0.51h3.5v1.75c0,0.46 0.1844,0.91 0.5126,1.24c0.3282,0.33 0.7733,0.51 1.2374,0.51c0.4641,0 0.9092,-0.18 1.2374,-0.51c0.3282,-0.33 0.5126,-0.78 0.5126,-1.24v-1.75h10.5v1.75c0,0.46 0.184,0.91 0.513,1.24c0.328,0.33 0.773,0.51 1.237,0.51c0.464,0 0.909,-0.18 1.237,-0.51c0.329,-0.33 0.513,-0.78 0.513,-1.24v-1.75h3.5c0.464,0 0.909,0.18 1.237,0.51c0.329,0.33 0.513,0.78 0.513,1.24z" fill="url(#paint18_linear_247_1922)"/></svg>