<svg viewBox="0 0 16.4596 15.8337" fill="none" xmlns="http://www.w3.org/2000/svg" x="0" y="0"><g id="Group_3">
<path id="Vector_33" d="M0.0555,8.914c-0.0417,-0.35 -0.0625,-0.53 -0.0533,-0.68c0.0223,-0.37 0.1698,-0.73 0.4188,-1.01c0.249,-0.28 0.584,-0.47 0.953,-0.53c0.145,-0.03 0.324,-0.03 0.683,-0.03h8.806c0.358,0 0.538,0 0.683,0.03c0.368,0.06 0.704,0.25 0.953,0.53c0.248,0.28 0.396,0.64 0.418,1.01c0.009,0.15 -0.011,0.32 -0.053,0.68l-0.334,2.86c-0.131,1.12 -0.668,2.15 -1.51,2.9c-0.841,0.75 -1.928,1.16 -3.054,1.16h-3.012c-1.126,0 -2.213,-0.41 -3.055,-1.16c-0.841,-0.75 -1.378,-1.78 -1.509,-2.9z" stroke="#F59E13"/>
<path id="Vector_34" opacity="0.5" d="M12.293,12.504h1.667c0.328,0 0.653,-0.07 0.956,-0.19c0.304,-0.13 0.579,-0.31 0.811,-0.55c0.233,-0.23 0.417,-0.5 0.542,-0.81c0.126,-0.3 0.191,-0.63 0.191,-0.95c0,-0.33 -0.065,-0.66 -0.191,-0.96c-0.125,-0.3 -0.309,-0.58 -0.542,-0.81c-0.232,-0.23 -0.507,-0.42 -0.811,-0.54c-0.303,-0.13 -0.628,-0.19 -0.956,-0.19h-1.25" stroke="#F59E13"/>
<path id="Vector_35" opacity="0.5" d="M6.461,0.004c-0.11,0.11 -0.197,0.24 -0.256,0.38c-0.059,0.14 -0.09,0.29 -0.09,0.45c0,0.15 0.031,0.31 0.09,0.45c0.059,0.14 0.146,0.27 0.256,0.38c0.109,0.11 0.196,0.24 0.255,0.39c0.059,0.14 0.09,0.29 0.09,0.45c0,0.15 -0.031,0.3 -0.09,0.45c-0.059,0.14 -0.146,0.27 -0.255,0.38" stroke="#F59E13" stroke-linecap="round" stroke-linejoin="round"/>
<path id="Vector_36" d="M2.294,4.584l0.097,-0.1c0.422,-0.42 0.47,-1.09 0.111,-1.57c-0.173,-0.23 -0.258,-0.51 -0.237,-0.8c0.02,-0.29 0.144,-0.56 0.349,-0.77l0.097,-0.09M10.211,4.584l0.096,-0.1c0.423,-0.42 0.47,-1.09 0.112,-1.57c-0.174,-0.23 -0.258,-0.51 -0.238,-0.8c0.021,-0.29 0.145,-0.56 0.35,-0.77l0.096,-0.09" stroke="#F59E13" stroke-linecap="round" stroke-linejoin="round"/>
</g></svg>