<svg viewBox="0 0 15.8365 15.7458" fill="none" xmlns="http://www.w3.org/2000/svg" x="0" y="0"><path id="Vector_37" d="M7.9196,15.3288c1.002,0 1.995,-0.2 2.918,-0.59c0.924,-0.39 1.76,-0.96 2.459,-1.68c0.699,-0.72 1.247,-1.57 1.611,-2.51c0.364,-0.93 0.537,-1.93 0.509,-2.93c-1.049,0.73 -2.308,1.1 -3.585,1.04c-1.277,-0.05 -2.5,-0.53 -3.482,-1.35c-0.981,-0.81 -1.667,-1.93 -1.952,-3.18c-0.285,-1.24 -0.152,-2.55 0.377,-3.71c-1.868,0.29 -3.559,1.27 -4.734,2.75c-1.174,1.48 -1.747,3.35 -1.602,5.23c0.145,1.89 0.996,3.65 2.383,4.93c1.387,1.29 3.208,2 5.098,2z" stroke="#1186DA" stroke-width="0.833333" stroke-linecap="round" stroke-linejoin="round"/></svg>