<svg viewBox="0 0 26.2 26.2" fill="none" xmlns="http://www.w3.org/2000/svg" x="0" y="0"><defs><linearGradient id="paint18_linear_247_2039" x1="13.099999999999994" y1="1.099999999999909" x2="27.599999999999994" y2="40.59999999999991" gradientUnits="userSpaceOnUse">
<stop offset="0.272472" stop-color="#6619DE"/>
<stop offset="1" stop-color="#1186DA"/>
</linearGradient></defs><path id="Vector_32" d="M9.4798,1.1c-3.3676,0.08 -5.3343,0.4 -6.6783,1.74c-1.1773,1.17 -1.5701,2.82 -1.7015,5.46M16.7202,1.1c3.3676,0.08 5.3348,0.4 6.6788,1.74c1.177,1.17 1.57,2.82 1.701,5.46M16.7202,25.1c3.3676,-0.08 5.3348,-0.4 6.6788,-1.74c1.177,-1.17 1.57,-2.82 1.701,-5.46M9.4798,25.1c-3.3676,-0.08 -5.3343,-0.4 -6.6783,-1.74c-1.1773,-1.17 -1.5701,-2.82 -1.7015,-5.46M18.1526,13.1c0,1.34 -0.5323,2.63 -1.4799,3.57c-0.9475,0.95 -2.2327,1.48 -3.5727,1.48c-1.34,0 -2.6252,-0.53 -3.5728,-1.48c-0.9475,-0.94 -1.4798,-2.23 -1.4798,-3.57c0,-1.34 0.5323,-2.63 1.4798,-3.57c0.9476,-0.95 2.2328,-1.48 3.5728,-1.48c1.34,0 2.6252,0.53 3.5727,1.48c0.9476,0.94 1.4799,2.23 1.4799,3.57z" stroke="url(#paint18_linear_247_2039)" stroke-width="2.2" stroke-linecap="round" stroke-linejoin="round"/></svg>